# xmcd
#
# Track frame offsets: 
#        150
#        16846
#        32687
#        50245
#        65410
#        84515
#        100225
#        119294
#        136433
#        150614
#        175305
#        193290
#        209781
#        230927
#        248976
#
# Disc length: 3525 seconds
#
# Revision: 2
# Processed by: cddbd v1.5.2PL0 Copyright (c) Steve Scherf et al.
# Submitted via: ExactAudioCopy v1.0b4
#
DISCID=df0dc30f
DTITLE=Petrúcio Amorim - Forró, alegria do meu povo
DYEAR=2010
DGENRE=Forró
TTITLE0=Voltando Pra Mim
TTITLE1=Toque Toque
TTITLE2=Lua
TTITLE3=Um Baião Chamado Saudade
TTITLE4=Meu Pai
TTITLE5=Rio Una
TTITLE6=Tá Com Raiva De Mim
TTITLE7=Cadê Dinorah
TTITLE8=Ausência
TTITLE9=Meu Cenário - O Filho Do Dono -Tareco E Mariola
TTITLE10=Tanto Tempo, Tanto Amor
TTITLE11=Minha Zabé
TTITLE12=Nem Ilha Nem Estrela
TTITLE13=Caruaru Do Passado
TTITLE14=Tropé De Cavalo
EXTD=
EXTT0=
EXTT1=
EXTT2=
EXTT3=
EXTT4=
EXTT5=
EXTT6=
EXTT7=
EXTT8=
EXTT9=
EXTT10=
EXTT11=
EXTT12=
EXTT13=
EXTT14=
PLAYORDER=
